<svg xmlns="http://www.w3.org/2000/svg" xmlns:xlink="http://www.w3.org/1999/xlink" version="1.1" width="1080" height="1080" viewBox="0 0 1080 1080" xml:space="preserve">
<desc>Created with Fabric.js 3.5.0</desc>
<defs>
</defs>
<rect x="0" y="0" width="100%" height="100%" fill="rgba(255,255,255,0)"/>
<g transform="matrix(44.9353 0 0 44.9353 539.2236 539.2236)" id="903770">
<g style="" vector-effect="non-scaling-stroke">
		<g transform="matrix(1 0 0 1 0.0535 0)" id="Layer_1">
<path style="stroke: none; stroke-width: 1; stroke-dasharray: none; stroke-linecap: butt; stroke-dashoffset: 0; stroke-linejoin: miter; stroke-miterlimit: 4; is-custom-font: none; font-file-url: none; fill: rgb(0,0,0); fill-opacity: 0.51; fill-rule: nonzero; opacity: 1;" transform=" translate(-12.0535, -12)" d="M 11.7 2 c -0.1 0 -0.1 0 -0.2 0 c 0 0 0 0 -0.1 0 v 0 c -0.2 0 -0.3 0 -0.5 0 l 0.2 2 c 0.4 0 0.9 0 1.3 0 c 4 0.3 7.3 3.5 7.5 7.6 c 0.2 4.4 -3.2 8.2 -7.6 8.4 c 0 0 -0.1 0 -0.2 0 c -0.3 0 -0.7 0 -1 0 L 11 22 c 0.4 0 0.8 0 1.3 0 c 0.1 0 0.3 0 0.4 0 v 0 c 5.4 -0.4 9.5 -5 9.3 -10.4 c -0.2 -5.1 -4.3 -9.1 -9.3 -9.5 v 0 c 0 0 0 0 0 0 c -0.2 0 -0.3 0 -0.5 0 C 12 2 11.9 2 11.7 2 z M 8.2 2.7 C 7.7 3 7.2 3.2 6.7 3.5 l 1.1 1.7 C 8.1 5 8.5 4.8 8.9 4.6 L 8.2 2.7 z M 4.5 5.4 c -0.4 0.4 -0.7 0.9 -1 1.3 l 1.7 1 C 5.4 7.4 5.7 7.1 6 6.7 L 4.5 5.4 z M 15.4 8.4 l -4.6 5.2 l -2.7 -2.1 L 7 13.2 l 4.2 3.2 l 5.8 -6.6 L 15.4 8.4 z M 2.4 9 c -0.2 0.5 -0.3 1.1 -0.3 1.6 l 2 0.3 c 0.1 -0.4 0.1 -0.9 0.3 -1.3 L 2.4 9 z M 4.1 13 l -2 0.2 c 0 0.1 0 0.2 0 0.3 c 0.1 0.4 0.2 0.9 0.3 1.3 l 1.9 -0.6 c -0.1 -0.3 -0.2 -0.7 -0.2 -1.1 L 4.1 13 z M 5.2 16.2 l -1.7 1.1 c 0.3 0.5 0.6 0.9 1 1.3 L 6 17.3 C 5.7 16.9 5.4 16.6 5.2 16.2 z M 7.8 18.8 l -1.1 1.7 c 0.5 0.3 1 0.5 1.5 0.8 l 0.8 -1.8 C 8.5 19.2 8.1 19 7.8 18.8 z" stroke-linecap="round"/>
</g>
		<g transform="matrix(1 0 0 1 0 0)" id="Layer_1">
<rect style="stroke: none; stroke-width: 1; stroke-dasharray: none; stroke-linecap: butt; stroke-dashoffset: 0; stroke-linejoin: miter; stroke-miterlimit: 4; is-custom-font: none; font-file-url: none; fill: none; fill-rule: nonzero; opacity: 1;" x="-12" y="-12" rx="0" ry="0" width="24" height="24"/>
</g>
</g>
</g>
</svg>